<svg width="266" height="266" viewBox="0 0 266 266" fill="none" xmlns="http://www.w3.org/2000/svg">
<path d="M0 69C0 30.8924 30.8924 0 69 0H197C235.108 0 266 30.8924 266 69V197C266 235.108 235.108 266 197 266H69C30.8924 266 0 235.108 0 197V69Z" fill="black"/>
<path d="M174.348 67C178.593 67.0001 182.474 68.0922 185.991 70.2754C189.63 72.4587 192.541 75.3699 194.725 79.0088C196.908 82.6476 198 86.65 198 91.0166V152.514H178.35V107.21L93.2002 177.622H152.514V198H90.6523C86.2858 198 82.2833 196.908 78.6445 194.725C75.127 192.42 72.2761 189.448 70.0928 185.81C68.0309 182.05 67.0001 178.047 67 173.802V112.486H86.6504V157.427L171.618 87.0137H112.486V67H174.348Z" fill="white"/>
</svg>
