<svg width="361" height="144" viewBox="0 0 361 144" fill="none" xmlns="http://www.w3.org/2000/svg">
<path d="M118 0C122.667 0 126.933 1.19974 130.8 3.59961C134.8 5.99961 138 9.2002 140.4 13.2002C142.8 17.2001 144 21.6005 144 26.4004V94H122.4V44.2002L28.7998 121.6H94V144H26C21.2 144 16.7998 142.8 12.7998 140.4C8.93314 137.867 5.80039 134.6 3.40039 130.6C1.13384 126.466 6.67011e-05 122.067 0 117.4V50H21.5996V99.4004L115 22H50V0H118Z" fill="black"/>
<path d="M220.4 68.2002L254.8 28H279.8L234.6 85L280 144H254.8L220.4 101.8L186.2 144H161L206.4 85L161 28H186.2L220.4 68.2002Z" fill="black"/>
<path d="M360.674 144H339.073V21.5723H294.101V0H360.674V144Z" fill="black"/>
</svg>
